<svg version="1.1" viewBox="0.0 0.0 852.4435695538058 867.3175853018373" fill="none" stroke="none" stroke-linecap="square" stroke-miterlimit="10" xmlns:xlink="http://www.w3.org/1999/xlink" xmlns="http://www.w3.org/2000/svg"><clipPath id="p.0"><path d="m0 0l852.44354 0l0 867.31757l-852.44354 0l0 -867.31757z" clip-rule="nonzero"/></clipPath><g clip-path="url(#p.0)"><path fill="#000000" fill-opacity="0.0" d="m0 0l852.44354 0l0 867.31757l-852.44354 0z" fill-rule="evenodd"/><path fill="#000000" fill-opacity="0.0" d="m42.850395 764.6588l130.70865 0l0 48.787354l-130.70865 0z" fill-rule="evenodd"/><path fill="#000000" d="m87.888115 813.5788l0 -13.359375l9.65625 0l0 1.578125l-7.875 0l0 4.09375l7.375 0l0 1.5625l-7.375 0l0 4.546875l8.1875 0l0 1.578125l-9.96875 0zm18.474823 0l0 -1.21875q-0.90625 1.4375 -2.703125 1.4375q-1.15625 0 -2.125 -0.640625q-0.96875 -0.640625 -1.5 -1.78125q-0.53125 -1.140625 -0.53125 -2.625q0 -1.453125 0.484375 -2.625q0.484375 -1.1875 1.4375 -1.8125q0.96875 -0.625 2.171875 -0.625q0.875 0 1.546875 0.375q0.6875 0.359375 1.109375 0.953125l0 -4.796875l1.640625 0l0 13.359375l-1.53125 0zm-5.171875 -4.828125q0 1.859375 0.78125 2.78125q0.78125 0.921875 1.84375 0.921875q1.078125 0 1.828125 -0.875q0.75 -0.890625 0.75 -2.6875q0 -1.984375 -0.765625 -2.90625q-0.765625 -0.9375 -1.890625 -0.9375q-1.078125 0 -1.8125 0.890625q-0.734375 0.890625 -0.734375 2.8125zm8.969467 5.625l1.59375 0.234375q0.109375 0.75 0.5625 1.078125q0.609375 0.453125 1.671875 0.453125q1.140625 0 1.75 -0.453125q0.625 -0.453125 0.84375 -1.265625q0.125 -0.5 0.109375 -2.109375q-1.0625 1.265625 -2.671875 1.265625q-2.0 0 -3.09375 -1.4375q-1.09375 -1.4375 -1.09375 -3.453125q0 -1.390625 0.5 -2.5625q0.515625 -1.171875 1.453125 -1.796875q0.953125 -0.640625 2.25 -0.640625q1.703125 0 2.8125 1.375l0 -1.15625l1.515625 0l0 8.359375q0 2.265625 -0.46875 3.203125q-0.453125 0.9375 -1.453125 1.484375q-0.984375 0.546875 -2.453125 0.546875q-1.71875 0 -2.796875 -0.78125q-1.0625 -0.765625 -1.03125 -2.34375zm1.359375 -5.8125q0 1.90625 0.75 2.78125q0.765625 0.875 1.90625 0.875q1.125 0 1.890625 -0.859375q0.765625 -0.875 0.765625 -2.734375q0 -1.78125 -0.796875 -2.671875q-0.78125 -0.90625 -1.890625 -0.90625q-1.09375 0 -1.859375 0.890625q-0.765625 0.875 -0.765625 2.625zm15.953842 1.90625l1.6874924 0.203125q-0.40625 1.484375 -1.4843674 2.3125q-1.078125 0.8125 -2.765625 0.8125q-2.125 0 -3.375 -1.296875q-1.234375 -1.3125 -1.234375 -3.671875q0 -2.453125 1.25 -3.796875q1.265625 -1.34375 3.265625 -1.34375q1.9375 0 3.15625 1.328125q1.2343674 1.3125 1.2343674 3.703125q0 0.15625 0 0.4375l-7.2187424 0q0.09375 1.59375 0.90625 2.453125q0.8125 0.84375 2.015625 0.84375q0.90625 0 1.546875 -0.46875q0.640625 -0.484375 1.015625 -1.515625zm-5.390625 -2.65625l5.40625 0q-0.109375 -1.21875 -0.625 -1.828125q-0.78125 -0.953125 -2.03125 -0.953125q-1.125 0 -1.90625 0.765625q-0.765625 0.75 -0.84375 2.015625z" fill-rule="nonzero"/><path fill="#cfe2f3" d="m250.53806 256.5748l295.05515 0l0 306.01578l-295.05515 0z" fill-rule="evenodd"/><path stroke="#000000" stroke-width="1.0" stroke-linejoin="round" stroke-linecap="butt" d="m250.53806 256.5748l295.05515 0l0 306.01578l-295.05515 0z" fill-rule="evenodd"/><path fill="#000000" fill-opacity="0.0" d="m256.0 252.80577l70.99213 0l0 40.440933l-70.99213 0z" fill-rule="evenodd"/><path fill="#000000" d="m269.35938 279.72577l0 -11.09375l-3.953125 0l0 -2.265625l10.609375 0l0 2.265625l-3.953125 0l0 11.09375l-2.703125 0zm8.043121 -10.984375l0 -2.375l2.5625 0l0 2.375l-2.5625 0zm0 10.984375l0 -9.671875l2.5625 0l0 9.671875l-2.5625 0zm5.183319 0l0 -13.359375l2.5625 0l0 13.359375l-2.5625 0zm10.777039 -3.078125l2.546875 0.421875q-0.484375 1.40625 -1.546875 2.140625q-1.0625 0.734375 -2.65625 0.734375q-2.515625 0 -3.734375 -1.65625q-0.953125 -1.3125 -0.953125 -3.328125q0 -2.40625 1.25 -3.765625q1.265625 -1.359375 3.1875 -1.359375q2.15625 0 3.40625 1.421875q1.25 1.421875 1.1875 4.375l-6.40625 0q0.03125 1.140625 0.609375 1.78125q0.59375 0.625 1.484375 0.625q0.59375 0 1.0 -0.328125q0.421875 -0.328125 0.625 -1.0625zm0.15625 -2.59375q-0.03125 -1.109375 -0.578125 -1.6875q-0.546875 -0.578125 -1.328125 -0.578125q-0.84375 0 -1.390625 0.609375q-0.546875 0.609375 -0.53125 1.65625l3.828125 0zm9.855896 5.671875l0 -13.359375l2.625 0l5.453125 8.921875l0 -8.921875l2.515625 0l0 13.359375l-2.703125 0l-5.390625 -8.703125l0 8.703125l-2.5 0z" fill-rule="nonzero"/><path fill="#cfe2f3" d="m322.4882 316.46194l149.32285 0l0 163.52756l-149.32285 0z" fill-rule="evenodd"/><path stroke="#000000" stroke-width="1.0" stroke-linejoin="round" stroke-linecap="butt" d="m322.4882 316.46194l149.32285 0l0 163.52756l-149.32285 0z" fill-rule="evenodd"/><path fill="#000000" d="m352.76678 336.04883l3.078125 0l0 1.828125q0.59375 -0.9375 1.609375 -1.515625q1.03125 -0.59375 2.265625 -0.59375q2.171875 0 3.671875 1.703125q1.515625 1.703125 1.515625 4.734375q0 3.125 -1.53125 4.859375q-1.515625 1.71875 -3.671875 1.71875q-1.03125 0 -1.875 -0.40625q-0.84375 -0.421875 -1.765625 -1.40625l0 6.265625l-3.296875 0l0 -17.1875zm3.265625 6.015625q0 2.09375 0.828125 3.109375q0.828125 1.0 2.03125 1.0q1.140625 0 1.90625 -0.921875q0.765625 -0.921875 0.765625 -3.015625q0 -1.96875 -0.796875 -2.90625q-0.78125 -0.953125 -1.9375 -0.953125q-1.203125 0 -2.0 0.9375q-0.796875 0.921875 -0.796875 2.75zm11.347656 6.4375l0 -17.1875l3.296875 0l0 6.1875q1.53125 -1.734375 3.609375 -1.734375q2.28125 0 3.765625 1.65625q1.484375 1.640625 1.484375 4.71875q0 3.1875 -1.515625 4.921875q-1.515625 1.71875 -3.6875 1.71875q-1.0625 0 -2.109375 -0.53125q-1.03125 -0.53125 -1.78125 -1.578125l0 1.828125l-3.0625 0zm3.28125 -6.5q0 1.9375 0.609375 2.859375q0.84375 1.3125 2.265625 1.3125q1.09375 0 1.859375 -0.921875q0.765625 -0.9375 0.765625 -2.9375q0 -2.140625 -0.78125 -3.078125q-0.765625 -0.9375 -1.96875 -0.9375q-1.1875 0 -1.96875 0.921875q-0.78125 0.90625 -0.78125 2.78125zm9.582031 11.25l0 -2.140625l13.6875 0l0 2.140625l-13.6875 0zm21.003906 -17.203125l0 2.625l-2.25 0l0 5.015625q0 1.53125 0.0625 1.78125q0.0625 0.25 0.28125 0.421875q0.234375 0.15625 0.5625 0.15625q0.453125 0 1.328125 -0.3125l0.28125 2.546875q-1.15625 0.5 -2.609375 0.5q-0.890625 0 -1.609375 -0.296875q-0.703125 -0.296875 -1.046875 -0.765625q-0.328125 -0.484375 -0.453125 -1.296875q-0.109375 -0.578125 -0.109375 -2.3125l0 -5.4375l-1.515625 0l0 -2.625l1.515625 0l0 -2.46875l3.3125 -1.921875l0 4.390625l2.25 0zm0.7265625 0l3.5 0l2.96875 8.84375l2.90625 -8.84375l3.421875 0l-4.40625 11.984375l-0.78125 2.171875q-0.4375 1.09375 -0.828125 1.65625q-0.390625 0.578125 -0.90625 0.9375q-0.5 0.359375 -1.25 0.546875q-0.734375 0.203125 -1.671875 0.203125q-0.953125 0 -1.875 -0.1875l-0.28125 -2.578125q0.765625 0.140625 1.390625 0.140625q1.140625 0 1.6875 -0.671875q0.5625 -0.671875 0.859375 -1.71875l-4.734375 -12.484375zm14.800781 0l3.078125 0l0 1.828125q0.59375 -0.9375 1.609375 -1.515625q1.03125 -0.59375 2.265625 -0.59375q2.171875 0 3.671875 1.703125q1.515625 1.703125 1.515625 4.734375q0 3.125 -1.53125 4.859375q-1.515625 1.71875 -3.671875 1.71875q-1.03125 0 -1.875 -0.40625q-0.84375 -0.421875 -1.765625 -1.40625l0 6.265625l-3.296875 0l0 -17.1875zm3.265625 6.015625q0 2.09375 0.828125 3.109375q0.828125 1.0 2.03125 1.0q1.140625 0 1.90625 -0.921875q0.765625 -0.921875 0.765625 -3.015625q0 -1.96875 -0.796875 -2.90625q-0.78125 -0.953125 -1.9375 -0.953125q-1.203125 0 -2.0 0.9375q-0.796875 0.921875 -0.796875 2.75zm18.707031 2.46875l3.28125 0.5625q-0.640625 1.796875 -2.015625 2.75q-1.359375 0.9375 -3.40625 0.9375q-3.25 0 -4.796875 -2.125q-1.234375 -1.703125 -1.234375 -4.28125q0 -3.09375 1.609375 -4.84375q1.625 -1.765625 4.09375 -1.765625q2.78125 0 4.375 1.84375q1.609375 1.828125 1.546875 5.609375l-8.25 0q0.03125 1.46875 0.796875 2.28125q0.765625 0.8125 1.890625 0.8125q0.78125 0 1.296875 -0.421875q0.53125 -0.421875 0.8125 -1.359375zm0.1875 -3.328125q-0.046875 -1.421875 -0.75 -2.15625q-0.703125 -0.75 -1.703125 -0.75q-1.078125 0 -1.78125 0.78125q-0.703125 0.78125 -0.6875 2.125l4.921875 0z" fill-rule="nonzero"/><path fill="#d9ead3" d="m351.7979 364.958l83.1496 0l0 29.73227l-83.1496 0z" fill-rule="evenodd"/><path stroke="#000000" stroke-width="1.0" stroke-linejoin="round" stroke-linecap="butt" d="m351.7979 364.958l83.1496 0l0 29.73227l-83.1496 0z" fill-rule="evenodd"/><path fill="#000000" d="m381.51636 383.85352l1.625 -0.25q0.125 0.96875 0.75 1.5q0.625 0.515625 1.75 0.515625q1.125 0 1.671875 -0.453125q0.546875 -0.46875 0.546875 -1.09375q0 -0.546875 -0.484375 -0.875q-0.328125 -0.21875 -1.671875 -0.546875q-1.8125 -0.46875 -2.515625 -0.796875q-0.6875 -0.328125 -1.046875 -0.90625q-0.359375 -0.59375 -0.359375 -1.3125q0 -0.640625 0.296875 -1.1875q0.296875 -0.5625 0.8125 -0.921875q0.375 -0.28125 1.03125 -0.46875q0.671875 -0.203125 1.421875 -0.203125q1.140625 0 2.0 0.328125q0.859375 0.328125 1.265625 0.890625q0.421875 0.5625 0.578125 1.5l-1.609375 0.21875q-0.109375 -0.75 -0.640625 -1.171875q-0.515625 -0.421875 -1.46875 -0.421875q-1.140625 0 -1.625 0.375q-0.46875 0.375 -0.46875 0.875q0 0.3125 0.1875 0.578125q0.203125 0.265625 0.640625 0.4375q0.234375 0.09375 1.4375 0.421875q1.75 0.453125 2.4375 0.75q0.6875 0.296875 1.078125 0.859375q0.390625 0.5625 0.390625 1.40625q0 0.828125 -0.484375 1.546875q-0.46875 0.71875 -1.375 1.125q-0.90625 0.390625 -2.046875 0.390625q-1.875 0 -2.875 -0.78125q-0.984375 -0.78125 -1.25 -2.328125zm9.96875 2.890625l0 -9.671875l1.46875 0l0 1.46875q0.5625 -1.03125 1.03125 -1.359375q0.484375 -0.328125 1.0625 -0.328125q0.828125 0 1.6875 0.53125l-0.5625 1.515625q-0.609375 -0.359375 -1.203125 -0.359375q-0.546875 0 -0.96875 0.328125q-0.421875 0.328125 -0.609375 0.890625q-0.28125 0.875 -0.28125 1.921875l0 5.0625l-1.625 0zm12.540802 -3.546875l1.609375 0.21875q-0.265625 1.65625 -1.359375 2.609375q-1.078125 0.9375 -2.671875 0.9375q-1.984375 0 -3.1875 -1.296875q-1.203125 -1.296875 -1.203125 -3.71875q0 -1.578125 0.515625 -2.75q0.515625 -1.171875 1.578125 -1.75q1.0625 -0.59375 2.3125 -0.59375q1.578125 0 2.578125 0.796875q1.0 0.796875 1.28125 2.265625l-1.59375 0.234375q-0.234375 -0.96875 -0.8125 -1.453125q-0.578125 -0.5 -1.390625 -0.5q-1.234375 0 -2.015625 0.890625q-0.78125 0.890625 -0.78125 2.8125q0 1.953125 0.75 2.84375q0.75 0.875 1.953125 0.875q0.96875 0 1.609375 -0.59375q0.65625 -0.59375 0.828125 -1.828125z" fill-rule="nonzero"/><path fill="#f4cccc" d="m351.7979 428.958l83.1496 0l0 29.73227l-83.1496 0z" fill-rule="evenodd"/><path stroke="#000000" stroke-width="1.0" stroke-linejoin="round" stroke-linecap="butt" d="m351.7979 428.958l83.1496 0l0 29.73227l-83.1496 0z" fill-rule="evenodd"/><path fill="#000000" d="m377.36243 447.85352l1.625 -0.25q0.125 0.96875 0.75 1.5q0.625 0.515625 1.75 0.515625q1.125 0 1.671875 -0.453125q0.546875 -0.46875 0.546875 -1.09375q0 -0.546875 -0.484375 -0.875q-0.328125 -0.21875 -1.671875 -0.546875q-1.8125 -0.46875 -2.515625 -0.796875q-0.6875 -0.328125 -1.046875 -0.90625q-0.359375 -0.59375 -0.359375 -1.3125q0 -0.640625 0.296875 -1.1875q0.296875 -0.5625 0.8125 -0.921875q0.375 -0.28125 1.03125 -0.46875q0.671875 -0.203125 1.421875 -0.203125q1.140625 0 2.0 0.328125q0.859375 0.328125 1.265625 0.890625q0.421875 0.5625 0.578125 1.5l-1.609375 0.21875q-0.109375 -0.75 -0.640625 -1.171875q-0.515625 -0.421875 -1.46875 -0.421875q-1.140625 0 -1.625 0.375q-0.46875 0.375 -0.46875 0.875q0 0.3125 0.1875 0.578125q0.203125 0.265625 0.640625 0.4375q0.234375 0.09375 1.4375 0.421875q1.75 0.453125 2.4375 0.75q0.6875 0.296875 1.078125 0.859375q0.390625 0.5625 0.390625 1.40625q0 0.828125 -0.484375 1.546875q-0.46875 0.71875 -1.375 1.125q-0.90625 0.390625 -2.046875 0.390625q-1.875 0 -2.875 -0.78125q-0.984375 -0.78125 -1.25 -2.328125zm9.984375 -8.578125l0 -1.890625l1.640625 0l0 1.890625l-1.640625 0zm0 11.46875l0 -9.671875l1.640625 0l0 9.671875l-1.640625 0zm4.1448364 0l0 -9.671875l1.46875 0l0 1.375q1.0625 -1.59375 3.078125 -1.59375q0.875 0 1.609375 0.3125q0.734375 0.3125 1.09375 0.828125q0.375 0.5 0.515625 1.203125q0.09375 0.453125 0.09375 1.59375l0 5.953125l-1.640625 0l0 -5.890625q0 -1.0 -0.203125 -1.484375q-0.1875 -0.5 -0.671875 -0.796875q-0.484375 -0.296875 -1.140625 -0.296875q-1.046875 0 -1.8125 0.671875q-0.75 0.65625 -0.75 2.515625l0 5.28125l-1.640625 0zm10.375702 0l0 -13.359375l1.640625 0l0 7.625l3.890625 -3.9375l2.109375 0l-3.6875 3.59375l4.0625 6.078125l-2.015625 0l-3.203125 -4.953125l-1.15625 1.125l0 3.828125l-1.640625 0z" fill-rule="nonzero"/><path fill="#93c47d" d="m487.7979 364.958l83.1496 0l0 29.73227l-83.1496 0z" fill-rule="evenodd"/><path stroke="#000000" stroke-width="1.0" stroke-linejoin="round" stroke-linecap="butt" d="m487.7979 364.958l83.1496 0l0 29.73227l-83.1496 0z" fill-rule="evenodd"/><path fill="#000000" d="m507.47333 380.24414q0 -3.328125 1.78125 -5.203125q1.78125 -1.890625 4.609375 -1.890625q1.84375 0 3.328125 0.890625q1.484375 0.875 2.265625 2.46875q0.78125 1.578125 0.78125 3.578125q0 2.03125 -0.828125 3.640625q-0.8125 1.59375 -2.3125 2.421875q-1.5 0.828125 -3.25 0.828125q-1.875 0 -3.359375 -0.90625q-1.484375 -0.921875 -2.25 -2.5q-0.765625 -1.578125 -0.765625 -3.328125zm1.8125 0.015625q0 2.421875 1.296875 3.8125q1.296875 1.390625 3.265625 1.390625q2.0 0 3.28125 -1.40625q1.28125 -1.40625 1.28125 -3.984375q0 -1.625 -0.546875 -2.84375q-0.546875 -1.21875 -1.609375 -1.875q-1.0625 -0.671875 -2.375 -0.671875q-1.890625 0 -3.25 1.296875q-1.34375 1.28125 -1.34375 4.28125zm13.230164 6.484375l0 -13.359375l5.046875 0q1.328125 0 2.03125 0.125q0.96875 0.171875 1.640625 0.640625q0.671875 0.453125 1.078125 1.28125q0.40625 0.828125 0.40625 1.828125q0 1.703125 -1.09375 2.890625q-1.078125 1.171875 -3.921875 1.171875l-3.421875 0l0 5.421875l-1.765625 0zm1.765625 -7.0l3.453125 0q1.71875 0 2.4375 -0.640625q0.71875 -0.640625 0.71875 -1.796875q0 -0.84375 -0.421875 -1.4375q-0.421875 -0.59375 -1.125 -0.78125q-0.4375 -0.125 -1.640625 -0.125l-3.421875 0l0 4.78125zm10.9748535 7.0l0 -13.359375l1.765625 0l0 13.359375l-1.765625 0zm4.8707886 0l0 -13.359375l1.8125 0l7.015625 10.484375l0 -10.484375l1.6875 0l0 13.359375l-1.8125 0l-7.015625 -10.5l0 10.5l-1.6875 0z" fill-rule="nonzero"/><path fill="#e06666" d="m223.7979 428.958l83.14961 0l0 29.73227l-83.14961 0z" fill-rule="evenodd"/><path stroke="#000000" stroke-width="1.0" stroke-linejoin="round" stroke-linecap="butt" d="m223.7979 428.958l83.14961 0l0 29.73227l-83.14961 0z" fill-rule="evenodd"/><path fill="#000000" d="m248.96552 450.74414l0 -13.359375l1.765625 0l0 13.359375l-1.765625 0zm4.886429 0l0 -13.359375l5.0468597 0q1.328125 0 2.03125 0.125q0.96875 0.171875 1.640625 0.640625q0.671875 0.453125 1.078125 1.28125q0.40625 0.828125 0.40625 1.828125q0 1.703125 -1.09375 2.890625q-1.078125 1.171875 -3.921875 1.171875l-3.4218597 0l0 5.421875l-1.765625 0zm1.765625 -7.0l3.4531097 0q1.71875 0 2.4375 -0.640625q0.71875 -0.640625 0.71875 -1.796875q0 -0.84375 -0.421875 -1.4375q-0.421875 -0.59375 -1.125 -0.78125q-0.4375 -0.125 -1.640625 -0.125l-3.4218597 0l0 4.78125zm10.974808 7.0l0 -13.359375l1.765625 0l0 13.359375l-1.765625 0zm4.870819 0l0 -13.359375l1.8125 0l7.015625 10.484375l0 -10.484375l1.6875 0l0 13.359375l-1.8125 0l-7.015625 -10.5l0 10.5l-1.6875 0z" fill-rule="nonzero"/><path fill="#e06666" d="m487.7979 428.958l83.1496 0l0 29.73227l-83.1496 0z" fill-rule="evenodd"/><path stroke="#000000" stroke-width="1.0" stroke-linejoin="round" stroke-linecap="butt" d="m487.7979 428.958l83.1496 0l0 29.73227l-83.1496 0z" fill-rule="evenodd"/><path fill="#000000" d="m512.9655 450.74414l0 -13.359375l1.765625 0l0 13.359375l-1.765625 0zm4.8864136 0l0 -13.359375l5.046875 0q1.328125 0 2.03125 0.125q0.96875 0.171875 1.640625 0.640625q0.671875 0.453125 1.078125 1.28125q0.40625 0.828125 0.40625 1.828125q0 1.703125 -1.09375 2.890625q-1.078125 1.171875 -3.921875 1.171875l-3.421875 0l0 5.421875l-1.765625 0zm1.765625 -7.0l3.453125 0q1.71875 0 2.4375 -0.640625q0.71875 -0.640625 0.71875 -1.796875q0 -0.84375 -0.421875 -1.4375q-0.421875 -0.59375 -1.125 -0.78125q-0.4375 -0.125 -1.640625 -0.125l-3.421875 0l0 4.78125zm10.9748535 7.0l0 -13.359375l1.765625 0l0 13.359375l-1.765625 0zm4.8707886 0l0 -13.359375l1.8125 0l7.015625 10.484375l0 -10.484375l1.6875 0l0 13.359375l-1.8125 0l-7.015625 -10.5l0 10.5l-1.6875 0z" fill-rule="nonzero"/><path fill="#93c47d" d="m223.7979 364.958l83.14961 0l0 29.73227l-83.14961 0z" fill-rule="evenodd"/><path stroke="#000000" stroke-width="1.0" stroke-linejoin="round" stroke-linecap="butt" d="m223.7979 364.958l83.14961 0l0 29.73227l-83.14961 0z" fill-rule="evenodd"/><path fill="#000000" d="m243.47333 380.24414q0 -3.328125 1.78125 -5.203125q1.78125 -1.890625 4.609375 -1.890625q1.84375 0 3.328125 0.890625q1.484375 0.875 2.265625 2.46875q0.78125 1.578125 0.78125 3.578125q0 2.03125 -0.828125 3.640625q-0.8125 1.59375 -2.3125 2.421875q-1.5 0.828125 -3.25 0.828125q-1.875 0 -3.359375 -0.90625q-1.484375 -0.921875 -2.25 -2.5q-0.765625 -1.578125 -0.765625 -3.328125zm1.8125 0.015625q0 2.421875 1.296875 3.8125q1.296875 1.390625 3.265625 1.390625q2.0 0 3.28125 -1.40625q1.28125 -1.40625 1.28125 -3.984375q0 -1.625 -0.546875 -2.84375q-0.546875 -1.21875 -1.609375 -1.875q-1.0625 -0.671875 -2.375 -0.671875q-1.890625 0 -3.25 1.296875q-1.34375 1.28125 -1.34375 4.28125zm13.230164 6.484375l0 -13.359375l5.046875 0q1.328125 0 2.03125 0.125q0.96875 0.171875 1.640625 0.640625q0.671875 0.453125 1.078125 1.28125q0.40625 0.828125 0.40625 1.828125q0 1.703125 -1.09375 2.890625q-1.078125 1.171875 -3.921875 1.171875l-3.421875 0l0 5.421875l-1.765625 0zm1.765625 -7.0l3.453125 0q1.71875 0 2.4375 -0.640625q0.71875 -0.640625 0.71875 -1.796875q0 -0.84375 -0.421875 -1.4375q-0.421875 -0.59375 -1.125 -0.78125q-0.4375 -0.125 -1.640625 -0.125l-3.421875 0l0 4.78125zm10.974823 7.0l0 -13.359375l1.765625 0l0 13.359375l-1.765625 0zm4.870819 0l0 -13.359375l1.8125 0l7.015625 10.484375l0 -10.484375l1.6875 0l0 13.359375l-1.8125 0l-7.015625 -10.5l0 10.5l-1.6875 0z" fill-rule="nonzero"/><path fill="#93c47d" d="m472.23883 210.24934l0 83.14961l-29.73227 0l0 -83.14961z" fill-rule="evenodd"/><path stroke="#000000" stroke-width="1.0" stroke-linejoin="round" stroke-linecap="butt" d="m472.23883 210.24934l0 83.14961l-29.73227 0l0 -83.14961z" fill-rule="evenodd"/><path fill="#000000" d="m456.9527 229.92477q3.328125 0 5.203125 1.78125q1.890625 1.78125 1.890625 4.609375q0 1.84375 -0.890625 3.328125q-0.875 1.484375 -2.46875 2.265625q-1.578125 0.78125 -3.578125 0.78125q-2.03125 0 -3.640625 -0.828125q-1.59375 -0.8125 -2.421875 -2.3125q-0.828125 -1.5 -0.828125 -3.25q0 -1.875 0.90625 -3.359375q0.921875 -1.484375 2.5 -2.25q1.578125 -0.765625 3.328125 -0.765625zm-0.015625 1.8125q-2.421875 0 -3.8125 1.296875q-1.390625 1.296875 -1.390625 3.265625q0 2.0 1.40625 3.28125q1.40625 1.28125 3.984375 1.28125q1.625 0 2.84375 -0.546875q1.21875 -0.546875 1.875 -1.609375q0.671875 -1.0625 0.671875 -2.375q0 -1.890625 -1.296875 -3.25q-1.28125 -1.34375 -4.28125 -1.34375zm-6.484375 13.230179l13.359375 0l0 5.046875q0 1.328125 -0.125 2.03125q-0.171875 0.96875 -0.640625 1.640625q-0.453125 0.671875 -1.28125 1.078125q-0.828125 0.40625 -1.828125 0.40625q-1.703125 0 -2.890625 -1.09375q-1.171875 -1.078125 -1.171875 -3.921875l0 -3.421875l-5.421875 0l0 -1.765625zm7.0 1.765625l0 3.453125q0 1.71875 0.640625 2.4375q0.640625 0.71875 1.796875 0.71875q0.84375 0 1.4375 -0.421875q0.59375 -0.421875 0.78125 -1.125q0.125 -0.4375 0.125 -1.640625l0 -3.421875l-4.78125 0zm-7.0 10.974808l13.359375 0l0 1.765625l-13.359375 0l0 -1.765625zm0 4.870819l13.359375 0l0 1.8125l-10.484375 7.015625l10.484375 0l0 1.6875l-13.359375 0l0 -1.8125l10.5 -7.015625l-10.5 0l0 -1.6875z" fill-rule="nonzero"/><path fill="#e06666" d="m352.22137 498.24536l0.03149414 83.1496l-29.73227 0l-0.03149414 -83.1496z" fill-rule="evenodd"/><path stroke="#000000" stroke-width="1.0" stroke-linejoin="round" stroke-linecap="butt" d="m352.22137 498.24536l0.03149414 83.1496l-29.73227 0l-0.03149414 -83.1496z" fill-rule="evenodd"/><path fill="#000000" d="m330.44476 523.41296l13.359375 0l6.713867E-4 1.765625l-13.359375 0l-6.713867E-4 -1.765625zm0.0018615723 4.8864136l13.359375 0l0.0019226074 5.046875q4.8828125E-4 1.328125 -0.12423706 2.03125q-0.17150879 0.96875 -0.64001465 1.640625q-0.45288086 0.671875 -1.2808533 1.078125q-0.8279419 0.40625 -1.8279419 0.40625q-1.703125 0 -2.8910522 -1.09375q-1.1722717 -1.078125 -1.1733704 -3.921875l-0.0012817383 -3.421875l-5.421875 0l-6.713867E-4 -1.765625zm7.0006714 1.765625l0.0013122559 3.453125q6.4086914E-4 1.71875 0.6415405 2.4375q0.64089966 0.71875 1.7971497 0.71875q0.84375 0 1.4373474 -0.421875q0.5935669 -0.421875 0.78082275 -1.125q0.124816895 -0.4375 0.12435913 -1.640625l-0.0012817383 -3.421875l-4.78125 0zm-6.9958496 10.9748535l13.359375 0l6.713867E-4 1.765625l-13.359375 0l-6.713867E-4 -1.765625zm0.0018310547 4.8707886l13.359375 0l7.019043E-4 1.8125l-10.48172 7.015625l10.484375 0l6.4086914E-4 1.6875l-13.359375 0l-7.019043E-4 -1.8125l10.497345 -7.015625l-10.5 0l-6.4086914E-4 -1.6875z" fill-rule="nonzero"/><path fill="#93c47d" d="m472.23883 498.24933l0 83.1496l-29.73227 0l0 -83.1496z" fill-rule="evenodd"/><path stroke="#000000" stroke-width="1.0" stroke-linejoin="round" stroke-linecap="butt" d="m472.23883 498.24933l0 83.1496l-29.73227 0l0 -83.1496z" fill-rule="evenodd"/><path fill="#000000" d="m456.9527 517.92474q3.328125 0 5.203125 1.78125q1.890625 1.78125 1.890625 4.609375q0 1.84375 -0.890625 3.328125q-0.875 1.484375 -2.46875 2.265625q-1.578125 0.78125 -3.578125 0.78125q-2.03125 0 -3.640625 -0.828125q-1.59375 -0.8125 -2.421875 -2.3125q-0.828125 -1.5 -0.828125 -3.25q0 -1.875 0.90625 -3.359375q0.921875 -1.484375 2.5 -2.25q1.578125 -0.765625 3.328125 -0.765625zm-0.015625 1.8125q-2.421875 0 -3.8125 1.296875q-1.390625 1.296875 -1.390625 3.265625q0 2.0 1.40625 3.28125q1.40625 1.28125 3.984375 1.28125q1.625 0 2.84375 -0.546875q1.21875 -0.546875 1.875 -1.609375q0.671875 -1.0625 0.671875 -2.375q0 -1.890625 -1.296875 -3.25q-1.28125 -1.34375 -4.28125 -1.34375zm-6.484375 13.230225l13.359375 0l0 5.046875q0 1.328125 -0.125 2.03125q-0.171875 0.96875 -0.640625 1.640625q-0.453125 0.671875 -1.28125 1.078125q-0.828125 0.40625 -1.828125 0.40625q-1.703125 0 -2.890625 -1.09375q-1.171875 -1.078125 -1.171875 -3.921875l0 -3.421875l-5.421875 0l0 -1.765625zm7.0 1.765625l0 3.453125q0 1.71875 0.640625 2.4375q0.640625 0.71875 1.796875 0.71875q0.84375 0 1.4375 -0.421875q0.59375 -0.421875 0.78125 -1.125q0.125 -0.4375 0.125 -1.640625l0 -3.421875l-4.78125 0zm-7.0 10.9747925l13.359375 0l0 1.765625l-13.359375 0l0 -1.765625zm0 4.8707886l13.359375 0l0 1.8125l-10.484375 7.015625l10.484375 0l0 1.6875l-13.359375 0l0 -1.8125l10.5 -7.015625l-10.5 0l0 -1.6875z" fill-rule="nonzero"/><path fill="#e06666" d="m352.22137 210.24535l0.03149414 83.14961l-29.73227 0l-0.03149414 -83.14961z" fill-rule="evenodd"/><path stroke="#000000" stroke-width="1.0" stroke-linejoin="round" stroke-linecap="butt" d="m352.22137 210.24535l0.03149414 83.14961l-29.73227 0l-0.03149414 -83.14961z" fill-rule="evenodd"/><path fill="#000000" d="m330.44476 235.41296l13.359375 0l6.713867E-4 1.765625l-13.359375 0l-6.713867E-4 -1.765625zm0.0018615723 4.886429l13.359375 0l0.0019226074 5.046875q4.8828125E-4 1.328125 -0.12423706 2.03125q-0.17150879 0.96875 -0.64001465 1.640625q-0.45288086 0.671875 -1.2808533 1.078125q-0.8279419 0.40625 -1.8279419 0.40625q-1.703125 0 -2.8910522 -1.09375q-1.1722717 -1.078125 -1.1733704 -3.921875l-0.0012817383 -3.421875l-5.421875 0l-6.713867E-4 -1.765625zm7.0006714 1.765625l0.0013122559 3.453125q6.4086914E-4 1.71875 0.6415405 2.4375q0.64089966 0.71875 1.7971497 0.71875q0.84375 0 1.4373474 -0.421875q0.5935669 -0.421875 0.78082275 -1.125q0.124816895 -0.4375 0.12435913 -1.640625l-0.0012817383 -3.421875l-4.78125 0zm-6.9958496 10.974823l13.359375 0l6.713867E-4 1.765625l-13.359375 0l-6.713867E-4 -1.765625zm0.0018310547 4.870804l13.359375 0l7.019043E-4 1.8125l-10.48172 7.015625l10.484375 0l6.4086914E-4 1.6875l-13.359375 0l-7.019043E-4 -1.8125l10.497345 -7.015625l-10.5 0l-6.4086914E-4 -1.6875z" fill-rule="nonzero"/><path fill="#000000" fill-opacity="0.0" d="m434.9475 379.82416l52.850403 0" fill-rule="evenodd"/><path stroke="#38761d" stroke-width="2.0" stroke-linejoin="round" stroke-linecap="butt" d="m434.9475 379.82416l40.850403 0" fill-rule="evenodd"/><path fill="#38761d" stroke="#38761d" stroke-width="2.0" stroke-linecap="butt" d="m475.7979 383.12762l9.076172 -3.3034668l-9.076172 -3.3034668z" fill-rule="evenodd"/><path fill="#000000" fill-opacity="0.0" d="m487.7979 443.82416l-52.850403 0" fill-rule="evenodd"/><path stroke="#ff0000" stroke-width="2.0" stroke-linejoin="round" stroke-linecap="butt" d="m487.7979 443.82416l-40.850403 0" fill-rule="evenodd"/><path fill="#ff0000" stroke="#ff0000" stroke-width="2.0" stroke-linecap="butt" d="m446.9475 440.5207l-9.076202 3.3034668l9.076202 3.3034668z" fill-rule="evenodd"/><path fill="#000000" fill-opacity="0.0" d="m306.9475 443.82416l22.425201 0l0 0.06298828l22.425201 0" fill-rule="evenodd"/><path stroke="#ff0000" stroke-width="2.0" stroke-linejoin="round" stroke-linecap="butt" d="m306.9475 443.82416l22.425201 0l0 0.06298828l10.425201 0" fill-rule="evenodd"/><path fill="#ff0000" stroke="#ff0000" stroke-width="2.0" stroke-linecap="butt" d="m339.7979 447.1906l9.076172 -3.3034668l-9.076172 -3.3034668z" fill-rule="evenodd"/><path fill="#000000" fill-opacity="0.0" d="m337.35522 498.24536l0 -19.777557l56.031494 0l0 -19.781494" fill-rule="evenodd"/><path stroke="#ff0000" stroke-width="2.0" stroke-linejoin="round" stroke-linecap="butt" d="m337.35522 498.24536l0 -19.777557l56.031494 0l0 -7.781494" fill-rule="evenodd"/><path fill="#ff0000" stroke="#ff0000" stroke-width="2.0" stroke-linecap="butt" d="m396.6902 470.6863l-3.3034668 -9.076202l-3.3034668 9.076202z" fill-rule="evenodd"/><path fill="#000000" fill-opacity="0.0" d="m337.38672 293.39496l0 67.78088l56.0 0l0 67.77817" fill-rule="evenodd"/><path stroke="#ff0000" stroke-width="2.0" stroke-linejoin="round" stroke-linecap="butt" d="m337.38672 293.39496l0 67.78088l56.0 0l0 55.7782" fill-rule="evenodd"/><path fill="#ff0000" stroke="#ff0000" stroke-width="2.0" stroke-linecap="butt" d="m390.08325 416.95404l3.3034668 9.076172l3.3034668 -9.076172z" fill-rule="evenodd"/><path fill="#000000" fill-opacity="0.0" d="m393.3727 364.958l0 -35.77954l64.0 0l0 -35.77951" fill-rule="evenodd"/><path stroke="#38761d" stroke-width="2.0" stroke-linejoin="round" stroke-linecap="butt" d="m393.3727 364.958l0 -35.77954l64.0 0l0 -23.77951" fill-rule="evenodd"/><path fill="#38761d" stroke="#38761d" stroke-width="2.0" stroke-linecap="butt" d="m460.67618 305.39896l-3.3034668 -9.076202l-3.3034668 9.076202z" fill-rule="evenodd"/><path fill="#000000" fill-opacity="0.0" d="m393.3727 394.69028l0 51.77954l64.0 0l0 51.77951" fill-rule="evenodd"/><path stroke="#38761d" stroke-width="2.0" stroke-linejoin="round" stroke-linecap="butt" d="m393.3727 394.69028l0 51.77954l64.0 0l0 39.77951" fill-rule="evenodd"/><path fill="#38761d" stroke="#38761d" stroke-width="2.0" stroke-linecap="butt" d="m454.06924 486.24936l3.3034668 9.076172l3.3034668 -9.076172z" fill-rule="evenodd"/><path fill="#000000" fill-opacity="0.0" d="m351.7979 379.82416l-22.425201 0l0 0.06298828l-22.425201 0" fill-rule="evenodd"/><path stroke="#38761d" stroke-width="2.0" stroke-linejoin="round" stroke-linecap="butt" d="m351.7979 379.82416l-22.425201 0l0 0.06298828l-10.425201 0" fill-rule="evenodd"/><path fill="#38761d" stroke="#38761d" stroke-width="2.0" stroke-linecap="butt" d="m318.9475 376.58368l-9.076202 3.3034668l9.076202 3.3034668z" fill-rule="evenodd"/><path fill="#fff2cc" d="m223.7979 116.952995l347.1496 -0.09448242l0 29.732277l-347.1496 0.09449768z" fill-rule="evenodd"/><path stroke="#000000" stroke-width="1.0" stroke-linejoin="round" stroke-linecap="butt" d="m223.7979 116.952995l347.1496 -0.09448242l0 29.732277l-347.1496 0.09449768z" fill-rule="evenodd"/><path fill="#000000" d="m375.68845 134.0103l1.765625 0.45263672q-0.5625 2.1720276 -2.0 3.3286743q-1.4375 1.1410217 -3.53125 1.1415863q-2.15625 5.79834E-4 -3.515625 -0.8740387q-1.34375 -0.8902588 -2.0625 -2.5463257q-0.703125 -1.6716766 -0.703125 -3.5935516q0 -2.078125 0.796875 -3.6252136q0.796875 -1.5627213 2.265625 -2.359993q1.484375 -0.81290436 3.25 -0.813385q2.0 -5.493164E-4 3.359375 1.0147095q1.375 1.0152512 1.90625 2.8744736l-1.734375 0.40672302q-0.46875 -1.4529953 -1.359375 -2.1090012q-0.875 -0.6716385 -2.203125 -0.6712723q-1.546875 4.196167E-4 -2.578125 0.7350769q-1.03125 0.73464966 -1.453125 1.9847717q-0.421875 1.2344818 -0.421875 2.5626068q0 1.703125 0.5 2.9686127q0.5 1.2655029 1.546875 1.905838q1.046875 0.6247101 2.265625 0.6243744q1.484375 -3.9672852E-4 2.515625 -0.8600464q1.03125 -0.8596649 1.390625 -2.5472565zm4.0042114 4.6864014l0 -13.359367l1.765625 -4.8065186E-4l0 5.484375l6.9375 -0.0018920898l0 -5.484375l1.765625 -4.8065186E-4l0 13.359383l-1.765625 4.7302246E-4l0 -6.296875l-6.9375 0.0018920898l0 6.296875l-1.765625 4.7302246E-4zm11.941681 -0.003250122l5.125 -13.360764l1.90625 -5.187988E-4l5.46875 13.35788l-2.015625 5.493164E-4l-1.546875 -4.0464478l-5.59375 0.0015258789l-1.46875 4.0472717l-1.875 5.0354004E-4zm3.859375 -5.485428l4.53125 -0.0012207031l-1.40625 -3.7027435q-0.625 -1.6873322 -0.9375 -2.7653732q-0.265625 1.2813187 -0.71875 2.5470657l-1.46875 3.9222717zm10.037323 5.4816437l0 -13.359367l1.8125 -4.9591064E-4l7.015625 10.482468l0 -10.484375l1.6875 -4.5776367E-4l0 13.359375l-1.8125 4.8828125E-4l-7.015625 -10.498093l0 10.5l-1.6875 4.5776367E-4zm12.129211 -0.0032958984l5.171875 -6.954529l-4.5625 -6.405014l2.109375 -5.722046E-4l2.421875 3.4368362q0.75 1.0623016 1.078125 1.6247101q0.4375 -0.7188721 1.046875 -1.5159149l2.6875 -3.5475998l1.921875 -5.264282E-4l-4.6875 6.2981567l5.0625 7.0611267l-2.1875 5.950928E-4l-3.359375 -4.7647247q-0.28125 -0.40615845 -0.59375 -0.89045715q-0.4375 0.7344971 -0.625 1.0001678l-3.359375 4.6571655l-2.125 5.79834E-4z" fill-rule="nonzero"/><path fill="#ffe599" d="m626.82153 8.0l0.1574707 572.9134l-29.7323 0l-0.1574707 -572.9134z" fill-rule="evenodd"/><path stroke="#000000" stroke-width="1.0" stroke-linejoin="round" stroke-linecap="butt" d="m626.82153 8.0l0.1574707 572.9134l-29.7323 0l-0.1574707 -572.9134z" fill-rule="evenodd"/><path fill="#000000" d="m609.79565 272.77246l-0.45263672 1.765625q-2.171997 -0.5625 -3.3286743 -2.0q-1.1409912 -1.4375 -1.1416016 -3.53125q-5.493164E-4 -2.15625 0.87402344 -3.515625q0.8902588 -1.34375 2.5463257 -2.0625q1.6716919 -0.703125 3.593567 -0.703125q2.078125 0 3.6252441 0.796875q1.5626831 0.796875 2.3599854 2.265625q0.8128662 1.484375 0.8133545 3.25q5.493164E-4 2.0 -1.0147095 3.359375q-1.0151978 1.375 -2.8744507 1.90625l-0.40673828 -1.734375q1.4530029 -0.46875 2.1090088 -1.359375q0.67163086 -0.875 0.67126465 -2.203125q-4.272461E-4 -1.546875 -0.7350464 -2.578125q-0.7346802 -1.03125 -1.9848022 -1.453125q-1.2344971 -0.421875 -2.562622 -0.421875q-1.703125 0 -2.968628 0.5q-1.2654419 0.5 -1.9058228 1.546875q-0.6246948 1.046875 -0.6243286 2.265625q3.6621094E-4 1.484375 0.8600464 2.515625q0.8596802 1.03125 2.5472412 1.390625zm-4.6864014 4.0042114l13.359375 0l4.8828125E-4 1.765625l-5.484375 0l0.0018920898 6.9375l5.484375 0l4.8828125E-4 1.765625l-13.359375 0l-4.8828125E-4 -1.765625l6.296875 0l-0.0018920898 -6.9375l-6.296875 0l-4.8828125E-4 -1.765625zm0.0032958984 11.941681l13.360779 5.125l5.493164E-4 1.90625l-13.35791 5.46875l-5.493164E-4 -2.015625l4.0464478 -1.546875l-0.0015258789 -5.59375l-4.0473022 -1.46875l-4.8828125E-4 -1.875zm5.4854126 3.859375l0.0012817383 4.53125l3.7026978 -1.40625q1.6873779 -0.625 2.7653809 -0.9375q-1.281311 -0.265625 -2.547058 -0.71875l-3.9223022 -1.46875zm-5.4815674 10.037323l13.359375 0l4.8828125E-4 1.8125l-10.482483 7.015625l10.484375 0l4.8828125E-4 1.6875l-13.359375 0l-4.8828125E-4 -1.8125l10.498047 -7.015625l-10.5 0l-4.272461E-4 -1.6875zm0.004699707 17.254211l5.65625 0l7.701721 -5.15625l6.1035156E-4 2.15625l-4.0305176 2.640625q-1.1248169 0.71875 -2.2652588 1.34375q1.0469971 0.609375 2.3597412 1.46875l3.9382324 2.578125l5.493164E-4 2.0625l-7.70459 -5.328125l-5.65625 0l-4.8828125E-4 -1.765625z" fill-rule="nonzero"/><path fill="#ffe599" d="m706.8779 200.59653l0.18902588 648.9763l-29.7323 0l-0.18896484 -648.9763z" fill-rule="evenodd"/><path stroke="#000000" stroke-width="1.0" stroke-linejoin="round" stroke-linecap="butt" d="m706.8779 200.59653l0.18902588 648.9763l-29.7323 0l-0.18896484 -648.9763z" fill-rule="evenodd"/><path fill="#000000" d="m689.8675 503.40048l-0.45263672 1.765625q-2.171997 -0.5625 -3.3286743 -2.0q-1.1410522 -1.4375 -1.1416626 -3.53125q-6.1035156E-4 -2.15625 0.8739624 -3.515625q0.8902588 -1.34375 2.5462646 -2.0625q1.6716919 -0.703125 3.593567 -0.703125q2.078125 0 3.6252441 0.796875q1.5627441 0.796875 2.3600464 2.265625q0.81292725 1.484375 0.8134155 3.25q6.1035156E-4 2.0 -1.0146484 3.359375q-1.0151978 1.375 -2.8744507 1.90625l-0.40673828 -1.734375q1.4530029 -0.46875 2.1090088 -1.359375q0.6715698 -0.875 0.6712036 -2.203125q-4.272461E-4 -1.546875 -0.7351074 -2.578125q-0.7346802 -1.03125 -1.9848022 -1.453125q-1.2344971 -0.421875 -2.562622 -0.421875q-1.703125 0 -2.968628 0.5q-1.2654419 0.5 -1.9057617 1.546875q-0.6246948 1.046875 -0.62438965 2.265625q4.272461E-4 1.484375 0.8601074 2.515625q0.8596802 1.03125 2.5473022 1.390625zm-4.6863403 4.0042114l13.359375 0l4.8828125E-4 1.765625l-5.484375 0l0.0020751953 6.9374695l5.484375 0l4.8828125E-4 1.765625l-13.359375 0l-4.8828125E-4 -1.765625l6.296875 0l-0.0020751953 -6.9374695l-6.296875 0l-4.8828125E-4 -1.765625zm0.003479004 11.941681l13.36084 5.125l6.1035156E-4 1.90625l-13.357788 5.46875l-6.1035156E-4 -2.015625l4.0464478 -1.546875l-0.0016479492 -5.59375l-4.0473022 -1.46875l-5.493164E-4 -1.875zm5.4854736 3.859375l0.0013427734 4.53125l3.7026978 -1.40625q1.6873169 -0.625 2.7653809 -0.9375q-1.281311 -0.265625 -2.5471191 -0.71875l-3.9223022 -1.46875zm-5.4814453 10.0372925l13.359375 0l5.493164E-4 1.8125l-10.482361 7.015625l10.484375 0l5.493164E-4 1.6875l-13.359436 0l-4.8828125E-4 -1.8125l10.497925 -7.015625l-10.5 0l-4.8828125E-4 -1.6875zm0.005065918 17.254211l5.65625 0l7.701599 -5.15625l6.1035156E-4 2.15625l-4.0304565 2.640625q-1.1248169 0.71875 -2.2652588 1.34375q1.0470581 0.609375 2.3598022 1.46875l3.9382935 2.578125l5.493164E-4 2.0625l-7.704651 -5.328125l-5.65625 0l-4.8828125E-4 -1.765625z" fill-rule="nonzero"/><path fill="#ffe599" d="m746.8163 8.000014l0.25195312 841.51184l-29.7323 0l-0.25195312 -841.51184z" fill-rule="evenodd"/><path stroke="#000000" stroke-width="1.0" stroke-linejoin="round" stroke-linecap="butt" d="m746.8163 8.000014l0.25195312 841.51184l-29.7323 0l-0.25195312 -841.51184z" fill-rule="evenodd"/><path fill="#000000" d="m729.8371 407.0717l-0.45257568 1.765625q-2.172058 -0.5625 -3.3287354 -2.0q-1.1410522 -1.4375 -1.1416626 -3.53125q-6.713867E-4 -2.15625 0.8739624 -3.515625q0.89019775 -1.34375 2.5462646 -2.0625q1.6716309 -0.703125 3.5935059 -0.703125q2.078125 0 3.6252441 0.796875q1.5627441 0.796875 2.3600464 2.265625q0.81292725 1.484375 0.81347656 3.25q6.1035156E-4 2.0 -1.0145874 3.359375q-1.0152588 1.375 -2.8744507 1.90625l-0.40679932 -1.734375q1.4530029 -0.46875 2.1090088 -1.359375q0.67163086 -0.875 0.6712036 -2.203125q-4.8828125E-4 -1.546875 -0.73516846 -2.578125q-0.7346802 -1.03125 -1.9848022 -1.453125q-1.2344971 -0.421875 -2.562622 -0.421875q-1.703125 0 -2.968567 0.5q-1.2655029 0.5 -1.9058228 1.546875q-0.6246948 1.046875 -0.6243286 2.265625q4.8828125E-4 1.484375 0.86016846 2.515625q0.8596802 1.03125 2.5472412 1.390625zm-4.6862793 4.004181l13.359375 0l5.493164E-4 1.765625l-5.484375 0l0.0020751953 6.9375l5.484375 0l4.8828125E-4 1.765625l-13.359375 0l-4.8828125E-4 -1.765625l6.296875 0l-0.0020751953 -6.9375l-6.296875 0l-5.493164E-4 -1.765625zm0.0036010742 11.941711l13.360901 5.125l5.493164E-4 1.90625l-13.357727 5.46875l-6.1035156E-4 -2.015625l4.0464478 -1.546875l-0.0017089844 -5.59375l-4.0473022 -1.46875l-5.493164E-4 -1.875zm5.4855347 3.859375l0.0013427734 4.53125l3.7026978 -1.40625q1.6873169 -0.625 2.7653198 -0.9375q-1.281311 -0.265625 -2.547058 -0.71875l-3.9223022 -1.46875zm-5.4813843 10.037323l13.359375 0l5.493164E-4 1.8125l-10.4823 7.015625l10.484375 0l4.8828125E-4 1.6875l-13.359375 0l-4.8828125E-4 -1.8125l10.497864 -7.015625l-10.5 0l-4.8828125E-4 -1.6875zm0.0051879883 17.25418l5.65625 0l7.701538 -5.15625l6.713867E-4 2.15625l-4.0304565 2.640625q-1.1248169 0.71875 -2.2652588 1.34375q1.0470581 0.609375 2.3598633 1.46875l3.9382324 2.578125l6.1035156E-4 2.0625l-7.704712 -5.328125l-5.65625 0l-4.8828125E-4 -1.765625z" fill-rule="nonzero"/><path fill="#ffe599" d="m666.8741 200.59654l0.09448242 380.31494l-29.7323 0l-0.09448242 -380.31494z" fill-rule="evenodd"/><path stroke="#000000" stroke-width="1.0" stroke-linejoin="round" stroke-linecap="butt" d="m666.8741 200.59654l0.09448242 380.31494l-29.7323 0l-0.09448242 -380.31494z" fill-rule="evenodd"/><path fill="#000000" d="m649.8173 369.06976l-0.45269775 1.765625q-2.172058 -0.5625 -3.3286133 -2.0q-1.1409912 -1.4375 -1.1415405 -3.53125q-5.493164E-4 -2.15625 0.8741455 -3.515625q0.8902588 -1.34375 2.5463867 -2.0625q1.6716919 -0.703125 3.593567 -0.703125q2.078125 0 3.625183 0.796875q1.5626831 0.796875 2.3599243 2.265625q0.8128662 1.484375 0.81329346 3.25q5.493164E-4 2.0 -1.0147705 3.359375q-1.0152588 1.375 -2.8745117 1.90625l-0.40667725 -1.734375q1.4530029 -0.46875 2.1090088 -1.359375q0.6716919 -0.875 0.6713257 -2.203125q-3.6621094E-4 -1.546875 -0.73498535 -2.578125q-0.73461914 -1.03125 -1.9847412 -1.453125q-1.2344971 -0.421875 -2.562622 -0.421875q-1.703125 0 -2.968628 0.5q-1.2655029 0.5 -1.9058838 1.546875q-0.6246948 1.046875 -0.62438965 2.265625q3.6621094E-4 1.484375 0.85998535 2.515625q0.85961914 1.03125 2.5472412 1.390625zm-4.6865234 4.0042114l13.359375 0l4.272461E-4 1.765625l-5.484375 0l0.0017089844 6.9375l5.484375 0l4.272461E-4 1.765625l-13.359375 0l-4.272461E-4 -1.765625l6.296875 0l-0.0017089844 -6.9375l-6.296875 0l-4.272461E-4 -1.765625zm0.0029296875 11.941681l13.360657 5.125l4.8828125E-4 1.90625l-13.358032 5.46875l-4.8828125E-4 -2.015625l4.046509 -1.546875l-0.0014038086 -5.59375l-4.047241 -1.46875l-4.8828125E-4 -1.875zm5.4853516 3.859375l0.001159668 4.53125l3.7027588 -1.40625q1.6873169 -0.625 2.7653809 -0.9375q-1.281311 -0.265625 -2.547058 -0.71875l-3.9222412 -1.46875zm-5.4818726 10.037323l13.359375 0l4.272461E-4 1.8125l-10.482605 7.015625l10.484375 0l4.272461E-4 1.6875l-13.359375 0l-4.8828125E-4 -1.8125l10.498291 -7.015625l-10.5 0l-4.272461E-4 -1.6875zm0.004272461 17.254211l5.65625 0l7.7018433 -5.15625l5.493164E-4 2.15625l-4.0305786 2.640625q-1.1248169 0.71875 -2.2653198 1.34375q1.0470581 0.609375 2.3597412 1.46875l3.9381714 2.578125l4.8828125E-4 2.0625l-7.704468 -5.328125l-5.65625 0l-4.272461E-4 -1.765625z" fill-rule="nonzero"/><path fill="#fff2cc" d="m48.000015 37.01176l768.1575 -0.25196838l0 29.73228l-768.1575 0.25196838z" fill-rule="evenodd"/><path stroke="#000000" stroke-width="1.0" stroke-linejoin="round" stroke-linecap="butt" d="m48.000015 37.01176l768.1575 -0.25196838l0 29.73228l-768.1575 0.25196838z" fill-rule="evenodd"/><path fill="#000000" d="m410.39453 53.991528l1.765625 0.45254517q-0.5625 2.172062 -2.0 3.3287811q-1.4375 1.141098 -3.53125 1.1417847q-2.15625 7.05719E-4 -3.515625 -0.87384796q-1.34375 -0.8901825 -2.0625 -2.546196q-0.703125 -1.6716461 -0.703125 -3.593521q0 -2.078125 0.796875 -3.6252632q0.796875 -1.5627594 2.265625 -2.360115q1.484375 -0.8129883 3.25 -0.8135681q2.0 -6.5612793E-4 3.359375 1.0145226q1.375 1.0151749 1.90625 2.8743744l-1.734375 0.4068222q-0.46875 -1.4529724 -1.359375 -2.1089325q-0.875 -0.6715851 -2.203125 -0.6711502q-1.546875 5.0735474E-4 -2.578125 0.73522186q-1.03125 0.7347107 -1.453125 1.9848518q-0.421875 1.2345123 -0.421875 2.5626373q0 1.703125 0.5 2.968586q0.5 1.265461 1.546875 1.9057426q1.046875 0.6246567 2.265625 0.62425613q1.484375 -4.8828125E-4 2.515625 -0.860199q1.03125 -0.8597145 1.390625 -2.5473328zm4.0042114 4.6861877l0 -13.359375l1.765625 -5.79834E-4l0 5.484375l6.9375 -0.0022773743l0 -5.484375l1.765625 -5.760193E-4l0 13.359375l-1.765625 5.79834E-4l0 -6.296879l-6.9375 0.0022773743l0 6.296875l-1.765625 5.79834E-4zm11.941681 -0.003917694l5.125 -13.361057l1.90625 -6.2561035E-4l5.46875 13.357582l-2.015625 6.637573E-4l-1.546875 -4.0463715l-5.59375 0.0018348694l-1.46875 4.0473595l-1.875 6.1416626E-4zm3.859375 -5.4856415l4.53125 -0.0014877319l-1.40625 -3.7026634q-0.625 -1.687294 -0.9375 -2.765316q-0.265625 1.2813377 -0.71875 2.5471115l-1.46875 3.9223557zm10.037323 5.481083l0 -13.359375l1.8125 -5.950928E-4l7.015625 10.482075l0 -10.484375l1.6875 -5.531311E-4l0 13.359375l-1.8125 5.950928E-4l-7.015625 -10.4977l0 10.5l-1.6875 5.531311E-4zm12.129211 -0.0039787292l5.171875 -6.9548225l-4.5625 -6.404751l2.109375 -6.942749E-4l2.421875 3.4367065q0.75 1.0622559 1.078125 1.6246452q0.4375 -0.71889114 1.046875 -1.5159683l2.6875 -3.5477562l1.921875 -6.2942505E-4l-4.6875 6.2984123l5.0625 7.0608406l-2.1875 7.171631E-4l-3.359375 -4.7645226q-0.28125 -0.40615845 -0.59375 -0.89043045q-0.4375 0.73451614 -0.625 1.0002022l-3.359375 4.6573524l-2.125 6.980896E-4z" fill-rule="nonzero"/><defs><linearGradient id="p.1" gradientUnits="userSpaceOnUse" gradientTransform="matrix(-6.697059202248851 0.0 0.0 -6.697059202248851 0.0 0.0)" spreadMethod="pad" x1="-1.1960907301723664" y1="-9.924827257693057" x2="-7.893149932242039" y2="-9.924876246955298"><stop offset="0.0" stop-color="#fff2cc" stop-opacity="0.0"/><stop offset="0.5" stop-color="#fff2cc"/><stop offset="1.0" stop-color="#fff2cc"/></linearGradient></defs><path fill="url(#p.1)" d="m52.860893 66.467155l-44.850395 0l0 -28.787403l44.850395 0z" fill-rule="evenodd"/><defs><linearGradient id="p.2" gradientUnits="userSpaceOnUse" gradientTransform="matrix(6.69706202487037 0.0 0.0 6.69706202487037 0.0 0.0)" spreadMethod="pad" x1="127.12778003116007" y1="5.5781056465748" x2="120.4307180064661" y2="5.5780570400616565"><stop offset="0.0" stop-color="#fff2cc" stop-opacity="0.0"/><stop offset="0.5" stop-color="#fff2cc"/><stop offset="1.0" stop-color="#fff2cc"/></linearGradient></defs><path fill="url(#p.2)" d="m806.532 37.35692l44.850403 0l0 28.7874l-44.850403 0z" fill-rule="evenodd"/><path fill="#fff2cc" d="m48.0 157.00508l522.92914 -0.15748596l0 29.732285l-522.92914 0.15748596z" fill-rule="evenodd"/><path stroke="#000000" stroke-width="1.0" stroke-linejoin="round" stroke-linecap="butt" d="m48.0 157.00508l522.92914 -0.15748596l0 29.732285l-522.92914 0.15748596z" fill-rule="evenodd"/><path fill="#000000" d="m287.78033 174.03151l1.765625 0.45259094q-0.5625 2.1720428 -2.0 3.32872q-1.4375 1.1410675 -3.53125 1.1416931q-2.15625 6.5612793E-4 -3.515625 -0.87394714q-1.34375 -0.890213 -2.0625 -2.5462494q-0.703125 -1.6716614 -0.703125 -3.5935364q0 -2.078125 0.796875 -3.6252441q0.796875 -1.5627289 2.265625 -2.3600464q1.484375 -0.81295776 3.25 -0.8134918q2.0 -5.950928E-4 3.359375 1.0146179q1.375 1.015213 1.90625 2.8744202l-1.734375 0.40678406q-0.46875 -1.4529877 -1.359375 -2.108963q-0.875 -0.6716156 -2.203125 -0.6712189q-1.546875 4.7302246E-4 -2.578125 0.7351532q-1.03125 0.7346802 -1.453125 1.9848175q-0.421875 1.2344971 -0.421875 2.562622q0 1.703125 0.5 2.9685974q0.5 1.2654724 1.546875 1.9057922q1.046875 0.62467957 2.265625 0.62431335q1.484375 -4.4250488E-4 2.515625 -0.86013794q1.03125 -0.8596802 1.390625 -2.547287zm4.004181 4.6862946l0 -13.359375l1.765625 -5.340576E-4l0 5.484375l6.9375 -0.002090454l0 -5.484375l1.765625 -5.340576E-4l0 13.359375l-1.765625 5.340576E-4l0 -6.296875l-6.9375 0.002090454l0 6.296875l-1.765625 5.340576E-4zm11.941711 -0.0036010742l5.125 -13.360916l1.90625 -5.79834E-4l5.46875 13.357727l-2.015625 6.1035156E-4l-1.546875 -4.046402l-5.59375 0.0016784668l-1.46875 4.0473175l-1.875 5.645752E-4zm3.859375 -5.4855347l4.53125 -0.001373291l-1.40625 -3.7026978q-0.625 -1.6873169 -0.9375 -2.765335q-0.265625 1.2813263 -0.71875 2.5470886l-1.46875 3.9223175zm10.037323 5.4813538l0 -13.359375l1.8125 -5.493164E-4l7.015625 10.482269l0 -10.48439l1.6875 -5.0354004E-4l0 13.359375l-1.8125 5.493164E-4l-7.015625 -10.497894l0 10.5l-1.6875 5.187988E-4zm12.129211 -0.0036621094l5.171875 -6.9546814l-4.5625 -6.4048767l2.109375 -6.2561035E-4l2.421875 3.4367676q0.75 1.0622711 1.078125 1.6246796q0.4375 -0.7188873 1.046875 -1.5159454l2.6875 -3.5476837l1.921875 -5.79834E-4l-4.6875 6.298279l5.0625 7.0609894l-2.1875 6.5612793E-4l-3.359375 -4.764618q-0.28125 -0.40615845 -0.59375 -0.8904419q-0.4375 0.7344971 -0.625 1.0001831l-3.359375 4.657257l-2.125 6.4086914E-4z" fill-rule="nonzero"/><defs><linearGradient id="p.3" gradientUnits="userSpaceOnUse" gradientTransform="matrix(-6.697059441454229 0.0 0.0 -6.697059441454229 0.0 0.0)" spreadMethod="pad" x1="-2.534691899126465" y1="-27.843138054940255" x2="-9.231751340401514" y2="-27.843187044200747"><stop offset="0.0" stop-color="#fff2cc" stop-opacity="0.0"/><stop offset="0.5" stop-color="#fff2cc"/><stop offset="1.0" stop-color="#fff2cc"/></linearGradient></defs><path fill="url(#p.3)" d="m61.825584 186.46715l-44.850395 0l0 -28.7874l44.850395 0z" fill-rule="evenodd"/><path fill="#fff2cc" d="m223.7979 76.9496l592.34644 -0.18897247l0 29.732277l-592.34644 0.1889801z" fill-rule="evenodd"/><path stroke="#000000" stroke-width="1.0" stroke-linejoin="round" stroke-linecap="butt" d="m223.7979 76.9496l592.34644 -0.18897247l0 29.732277l-592.34644 0.1889801z" fill-rule="evenodd"/><path fill="#000000" d="m498.2869 93.96067l1.765625 0.45256042q-0.5625 2.172058 -2.0 3.3287659q-1.4375 1.1410828 -3.53125 1.1417465q-2.15625 6.942749E-4 -3.515625 -0.8738785q-1.34375 -0.8901901 -2.0625 -2.5462112q-0.703125 -1.6716537 -0.703125 -3.5935287q0 -2.078125 0.796875 -3.6252518q0.796875 -1.5627594 2.265625 -2.3600998q1.484375 -0.812973 3.25 -0.8135376q2.0 -6.4086914E-4 3.359375 1.0145569q1.375 1.0151825 1.90625 2.8743896l-1.734375 0.40679932q-0.46875 -1.4529724 -1.359375 -2.1089401q-0.875 -0.6715927 -2.203125 -0.6711731q-1.546875 4.9591064E-4 -2.578125 0.735199q-1.03125 0.73470306 -1.453125 1.9848404q-0.421875 1.2345123 -0.421875 2.5626373q0 1.703125 0.5 2.9685898q0.5 1.2654648 1.546875 1.9057541q1.046875 0.6246643 2.265625 0.6242752q1.484375 -4.7302246E-4 2.515625 -0.8601761q1.03125 -0.85970306 1.390625 -2.5473175zm4.0042114 4.6862183l0 -13.359375l1.765625 -5.569458E-4l0 5.484375l6.9375 -0.0022125244l0 -5.4843826l1.7655945 -5.569458E-4l0 13.359375l-1.7655945 5.645752E-4l0 -6.296875l-6.9375 0.0022125244l0 6.296875l-1.765625 5.569458E-4zm11.941681 -0.0038070679l5.125 -13.361008l1.90625 -6.1035156E-4l5.46875 13.357628l-2.015625 6.4849854E-4l-1.546875 -4.0463867l-5.59375 0.0017852783l-1.46875 4.047348l-1.875 5.950928E-4zm3.859375 -5.4856033l4.53125 -0.001449585l-1.40625 -3.7026749q-0.625 -1.6873016 -0.9375 -2.7653275q-0.265625 1.2813339 -0.71875 2.547104l-1.46875 3.922348zm10.0372925 5.4811707l0 -13.359375l1.8125 -5.79834E-4l7.015625 10.48214l0 -10.484375l1.6875 -5.41687E-4l0 13.359375l-1.8125 5.79834E-4l-7.015625 -10.497765l0 10.5l-1.6875 5.41687E-4zm12.129211 -0.003868103l5.171875 -6.954773l-4.5625 -6.4048004l2.109375 -6.713867E-4l2.421875 3.4367294q0.75 1.0622559 1.078125 1.6246567q0.4375 -0.71889496 1.046875 -1.5159607l2.6875 -3.5477295l1.921875 -6.1798096E-4l-4.6875 6.2983704l5.0625 7.06089l-2.1875 6.942749E-4l-3.359375 -4.7645493q-0.28125 -0.40616608 -0.59375 -0.8904419q-0.4375 0.73451996 -0.625 1.0001984l-3.359375 4.6573257l-2.125 6.790161E-4z" fill-rule="nonzero"/><defs><linearGradient id="p.4" gradientUnits="userSpaceOnUse" gradientTransform="matrix(6.6970559012137665 0.0 0.0 6.6970559012137665 0.0 0.0)" spreadMethod="pad" x1="126.31752774620003" y1="11.546573486313607" x2="119.62047184516544" y2="11.54652449702722"><stop offset="0.0" stop-color="#fff2cc" stop-opacity="0.0"/><stop offset="0.5" stop-color="#fff2cc"/><stop offset="1.0" stop-color="#fff2cc"/></linearGradient></defs><path fill="url(#p.4)" d="m801.105 77.32805l44.850403 0l0 28.7874l-44.850403 0z" fill-rule="evenodd"/><path fill="#ffffff" d="m42.845146 700.7559l130.70865 0l0 40.440918l-130.70865 0z" fill-rule="evenodd"/><path stroke="#000000" stroke-width="1.0" stroke-linejoin="round" stroke-linecap="butt" d="m42.845146 700.7559l130.70865 0l0 40.440918l-130.70865 0z" fill-rule="evenodd"/><path fill="#000000" d="m53.26702 727.89636l0 -13.359375l1.8125 0l7.015625 10.484375l0 -10.484375l1.6875 0l0 13.359375l-1.8125 0l-7.015625 -10.5l0 10.5l-1.6875 0zm12.676071 -4.84375q0 -2.6875 1.484375 -3.96875q1.25 -1.078125 3.046875 -1.078125q2.0 0 3.265625 1.3125q1.265625 1.296875 1.265625 3.609375q0 1.859375 -0.5625 2.9375q-0.5625 1.0625 -1.640625 1.65625q-1.0625 0.59375 -2.328125 0.59375q-2.03125 0 -3.28125 -1.296875q-1.25 -1.3125 -1.25 -3.765625zm1.6875 0q0 1.859375 0.796875 2.796875q0.8125 0.921875 2.046875 0.921875q1.21875 0 2.03125 -0.921875q0.8125 -0.9375 0.8125 -2.84375q0 -1.796875 -0.8125 -2.71875q-0.8125 -0.921875 -2.03125 -0.921875q-1.234375 0 -2.046875 0.921875q-0.796875 0.90625 -0.796875 2.765625zm15.563217 4.84375l0 -1.21875q-0.90625 1.4375 -2.703125 1.4375q-1.15625 0 -2.125 -0.640625q-0.96875 -0.640625 -1.5 -1.78125q-0.53125 -1.140625 -0.53125 -2.625q0 -1.453125 0.484375 -2.625q0.484375 -1.1875 1.4375 -1.8125q0.96875 -0.625 2.171875 -0.625q0.875 0 1.546875 0.375q0.6875 0.359375 1.109375 0.953125l0 -4.796875l1.640625 0l0 13.359375l-1.53125 0zm-5.171875 -4.828125q0 1.859375 0.78125 2.78125q0.78125 0.921875 1.84375 0.921875q1.078125 0 1.828125 -0.875q0.75 -0.890625 0.75 -2.6875q0 -1.984375 -0.765625 -2.90625q-0.765625 -0.9375 -1.890625 -0.9375q-1.078125 0 -1.8125 0.890625q-0.734375 0.890625 -0.734375 2.8125zm15.906967 1.71875l1.6875 0.203125q-0.40625 1.484375 -1.484375 2.3125q-1.078125 0.8125 -2.765625 0.8125q-2.125 0 -3.375 -1.296875q-1.234375 -1.3125 -1.234375 -3.671875q0 -2.453125 1.25 -3.796875q1.265625 -1.34375 3.265625 -1.34375q1.9375 0 3.15625 1.328125q1.234375 1.3125 1.234375 3.703125q0 0.15625 0 0.4375l-7.21875 0q0.09375 1.59375 0.90625 2.453125q0.8125 0.84375 2.015625 0.84375q0.90625 0 1.546875 -0.46875q0.640625 -0.484375 1.015625 -1.515625zm-5.390625 -2.65625l5.40625 0q-0.109375 -1.21875 -0.625 -1.828125q-0.78125 -0.953125 -2.03125 -0.953125q-1.125 0 -1.90625 0.765625q-0.765625 0.75 -0.84375 2.015625z" fill-rule="nonzero"/><path fill="#000000" fill-opacity="0.0" d="m42.850395 789.0525l130.70865 0" fill-rule="evenodd"/><path stroke="#000000" stroke-width="2.0" stroke-linejoin="round" stroke-linecap="butt" d="m42.850395 789.0525l130.70865 0" fill-rule="evenodd"/><path fill="#000000" fill-opacity="0.0" d="m554.06824 170.64305l57.35431 0" fill-rule="evenodd"/><path stroke="#000000" stroke-width="2.0" stroke-linejoin="round" stroke-linecap="butt" d="m561.64825 170.64305l42.194336 0" fill-rule="evenodd"/><path fill="#000000" stroke="#000000" stroke-width="2.0" stroke-linecap="butt" d="m555.06824 170.64305c0 -1.8170166 1.4729614 -3.2900085 3.289978 -3.2900085c1.8170166 0 3.290039 1.472992 3.290039 3.2900085c0 1.8170166 -1.4730225 3.2899933 -3.290039 3.2899933c-1.8170166 0 -3.289978 -1.4729767 -3.289978 -3.2899933z" fill-rule="nonzero"/><path fill="#000000" stroke="#000000" stroke-width="2.0" stroke-linecap="butt" d="m610.42255 170.64305c0 1.8170166 -1.4729614 3.2899933 -3.289978 3.2899933c-1.8170166 0 -3.289978 -1.4729767 -3.289978 -3.2899933c0 -1.8170166 1.4729614 -3.2900085 3.289978 -3.2900085c1.8170166 0 3.289978 1.472992 3.289978 3.2900085z" fill-rule="nonzero"/><path fill="#000000" fill-opacity="0.0" d="m457.3727 210.24934l0 -38.866135" fill-rule="evenodd"/><path stroke="#000000" stroke-width="2.0" stroke-linejoin="round" stroke-linecap="butt" d="m457.3727 202.66936l0 -23.706161" fill-rule="evenodd"/><path fill="#000000" stroke="#000000" stroke-width="2.0" stroke-linecap="butt" d="m457.3727 209.24934c-1.8170166 0 -3.2900085 -1.4729767 -3.2900085 -3.2899933c0 -1.8170166 1.472992 -3.2900085 3.2900085 -3.2900085c1.8170166 0 3.289978 1.472992 3.289978 3.2900085c0 1.8170166 -1.4729614 3.2899933 -3.289978 3.2899933z" fill-rule="nonzero"/><path fill="#000000" stroke="#000000" stroke-width="2.0" stroke-linecap="butt" d="m457.3727 172.38321c1.8170166 0 3.289978 1.4729767 3.289978 3.2899933c0 1.8170166 -1.4729614 3.2899933 -3.289978 3.2899933c-1.8170166 0 -3.2900085 -1.4729767 -3.2900085 -3.2899933c0 -1.8170166 1.472992 -3.2899933 3.2900085 -3.2899933z" fill-rule="nonzero"/><path fill="#000000" fill-opacity="0.0" d="m467.67062 210.91864l0 -39.732285l16.125977 0l0 -39.732285" fill-rule="evenodd"/><path stroke="#000000" stroke-width="2.0" stroke-linejoin="round" stroke-linecap="butt" d="m467.6706 203.33864l0 -32.152283l16.126007 0l0 -32.152283" fill-rule="evenodd"/><path fill="#000000" stroke="#000000" stroke-width="2.0" stroke-linecap="butt" d="m467.6706 209.91864c-1.8170166 0 -3.289978 -1.472992 -3.289978 -3.2900085c0 -1.8170166 1.4729614 -3.2899933 3.289978 -3.2899933c1.8170166 0 3.2900085 1.4729767 3.2900085 3.2899933c0 1.8170166 -1.472992 3.2900085 -3.2900085 3.2900085z" fill-rule="nonzero"/><path fill="#000000" stroke="#000000" stroke-width="2.0" stroke-linecap="butt" d="m483.7966 132.45407c1.8170166 0 3.289978 1.4729767 3.289978 3.2899933c0 1.8170166 -1.4729614 3.2900085 -3.289978 3.2900085c-1.8170166 0 -3.2900085 -1.472992 -3.2900085 -3.2900085c0 -1.8170166 1.472992 -3.2899933 3.2900085 -3.2899933z" fill-rule="nonzero"/><path fill="#000000" fill-opacity="0.0" d="m447.20203 210.91864l0 -60.33072l8.598419 0l0 -60.330704" fill-rule="evenodd"/><path stroke="#000000" stroke-width="2.0" stroke-linejoin="round" stroke-linecap="butt" d="m447.20203 203.33864l0 -52.750717l8.598419 0l0 -52.7507" fill-rule="evenodd"/><path fill="#000000" stroke="#000000" stroke-width="2.0" stroke-linecap="butt" d="m447.20203 209.91864c-1.8170166 0 -3.2900085 -1.472992 -3.2900085 -3.2900085c0 -1.8170166 1.472992 -3.2899933 3.2900085 -3.2899933c1.8170166 0 3.289978 1.4729767 3.289978 3.2899933c0 1.8170166 -1.4729614 3.2900085 -3.289978 3.2900085z" fill-rule="nonzero"/><path fill="#000000" stroke="#000000" stroke-width="2.0" stroke-linecap="butt" d="m455.80045 91.25722c1.8170166 0 3.2900085 1.4729843 3.2900085 3.290001c0 1.8170166 -1.472992 3.290001 -3.2900085 3.290001c-1.8170166 0 -3.2900085 -1.4729843 -3.2900085 -3.290001c0 -1.8170166 1.472992 -3.290001 3.2900085 -3.290001z" fill-rule="nonzero"/><path fill="#000000" fill-opacity="0.0" d="m610.18207 127.40251l0 -39.55906" fill-rule="evenodd"/><path stroke="#000000" stroke-width="2.0" stroke-linejoin="round" stroke-linecap="butt" d="m610.18207 119.82251l0 -24.399055" fill-rule="evenodd"/><path fill="#000000" stroke="#000000" stroke-width="2.0" stroke-linecap="butt" d="m610.18207 126.40251c-1.8170166 0 -3.290039 -1.4729843 -3.290039 -3.290001c0 -1.8170166 1.4730225 -3.290001 3.290039 -3.290001c1.8170166 0 3.289978 1.4729843 3.289978 3.290001c0 1.8170166 -1.4729614 3.290001 -3.289978 3.290001z" fill-rule="nonzero"/><path fill="#000000" stroke="#000000" stroke-width="2.0" stroke-linecap="butt" d="m610.18207 88.84345c1.8170166 0 3.289978 1.4729843 3.289978 3.290001c0 1.8170166 -1.4729614 3.290001 -3.289978 3.290001c-1.8170166 0 -3.290039 -1.4729843 -3.290039 -3.290001c0 -1.8170166 1.4730225 -3.290001 3.290039 -3.290001z" fill-rule="nonzero"/><path fill="#000000" fill-opacity="0.0" d="m440.6036 210.91864l13.196838 0l0 10.708664l-13.196838 0z" fill-rule="evenodd"/><path fill="#000000" fill-opacity="0.0" d="m461.0722 210.91864l13.196838 0l0 10.708664l-13.196838 0z" fill-rule="evenodd"/></g></svg>